<?xml version="1.0" encoding="UTF-8" standalone="no"?>
<!DOCTYPE svg PUBLIC "-//W3C//DTD SVG 1.1//EN"
 "http://www.w3.org/Graphics/SVG/1.1/DTD/svg11.dtd">
<!-- Generated by graphviz version 2.36.0 (20140111.2315)
 -->
<!-- Title: controllers_diagram Pages: 1 -->
<svg width="744pt" height="621pt"
 viewBox="0.00 0.00 744.00 621.00" xmlns="http://www.w3.org/2000/svg" xmlns:xlink="http://www.w3.org/1999/xlink">
<g id="graph0" class="graph" transform="scale(1 1) rotate(0) translate(4 617)">
<title>controllers_diagram</title>
<polygon fill="white" stroke="none" points="-4,4 -4,-617 740,-617 740,4 -4,4"/>
<!-- _diagram_info -->
<g id="node1" class="node"><title>_diagram_info</title>
<text text-anchor="start" x="530" y="-513.6" font-family="Times,serif" font-size="13.00">Controllers diagram</text>
<text text-anchor="start" x="530" y="-499.6" font-family="Times,serif" font-size="13.00">Date: Nov 15 2014 &#45; 18:17</text>
<text text-anchor="start" x="530" y="-485.6" font-family="Times,serif" font-size="13.00">Migration version: 20141106193620</text>
<text text-anchor="start" x="530" y="-471.6" font-family="Times,serif" font-size="13.00">Generated by RailRoady 1.2.0</text>
<text text-anchor="start" x="530" y="-457.6" font-family="Times,serif" font-size="13.00">http://railroady.prestonlee.com</text>
</g>
<!-- CoursesController -->
<g id="node2" class="node"><title>CoursesController</title>
<path fill="none" stroke="black" d="M228,-54.5C228,-54.5 320,-54.5 320,-54.5 326,-54.5 332,-60.5 332,-66.5 332,-66.5 332,-360.5 332,-360.5 332,-366.5 326,-372.5 320,-372.5 320,-372.5 228,-372.5 228,-372.5 222,-372.5 216,-366.5 216,-360.5 216,-360.5 216,-66.5 216,-66.5 216,-60.5 222,-54.5 228,-54.5"/>
<text text-anchor="middle" x="274" y="-357.3" font-family="Times,serif" font-size="14.00">CoursesController</text>
<polyline fill="none" stroke="black" points="216,-349.5 332,-349.5 "/>
<text text-anchor="start" x="224" y="-334.3" font-family="Times,serif" font-size="14.00">create</text>
<text text-anchor="start" x="224" y="-319.3" font-family="Times,serif" font-size="14.00">destroy</text>
<text text-anchor="start" x="224" y="-304.3" font-family="Times,serif" font-size="14.00">edit</text>
<text text-anchor="start" x="224" y="-289.3" font-family="Times,serif" font-size="14.00">edit_user</text>
<text text-anchor="start" x="224" y="-274.3" font-family="Times,serif" font-size="14.00">enroll</text>
<text text-anchor="start" x="224" y="-259.3" font-family="Times,serif" font-size="14.00">enrolled</text>
<text text-anchor="start" x="224" y="-244.3" font-family="Times,serif" font-size="14.00">index</text>
<text text-anchor="start" x="224" y="-229.3" font-family="Times,serif" font-size="14.00">join</text>
<text text-anchor="start" x="224" y="-214.3" font-family="Times,serif" font-size="14.00">kick_user</text>
<text text-anchor="start" x="224" y="-199.3" font-family="Times,serif" font-size="14.00">new</text>
<text text-anchor="start" x="224" y="-184.3" font-family="Times,serif" font-size="14.00">show</text>
<text text-anchor="start" x="224" y="-169.3" font-family="Times,serif" font-size="14.00">taught</text>
<text text-anchor="start" x="224" y="-154.3" font-family="Times,serif" font-size="14.00">update</text>
<text text-anchor="start" x="224" y="-139.3" font-family="Times,serif" font-size="14.00">update_user</text>
<text text-anchor="start" x="224" y="-124.3" font-family="Times,serif" font-size="14.00">users</text>
<polyline fill="none" stroke="black" points="216,-116.5 332,-116.5 "/>
<polyline fill="none" stroke="black" points="216,-92.5 332,-92.5 "/>
<text text-anchor="start" x="224" y="-77.3" font-family="Times,serif" font-size="14.00">_layout</text>
<text text-anchor="start" x="224" y="-62.3" font-family="Times,serif" font-size="14.00">course_params</text>
</g>
<!-- SubmissionsController -->
<g id="node3" class="node"><title>SubmissionsController</title>
<path fill="none" stroke="black" d="M174,-414.5C174,-414.5 304,-414.5 304,-414.5 310,-414.5 316,-420.5 316,-426.5 316,-426.5 316,-600.5 316,-600.5 316,-606.5 310,-612.5 304,-612.5 304,-612.5 174,-612.5 174,-612.5 168,-612.5 162,-606.5 162,-600.5 162,-600.5 162,-426.5 162,-426.5 162,-420.5 168,-414.5 174,-414.5"/>
<text text-anchor="middle" x="239" y="-597.3" font-family="Times,serif" font-size="14.00">SubmissionsController</text>
<polyline fill="none" stroke="black" points="162,-589.5 316,-589.5 "/>
<text text-anchor="start" x="170" y="-574.3" font-family="Times,serif" font-size="14.00">edit</text>
<text text-anchor="start" x="170" y="-559.3" font-family="Times,serif" font-size="14.00">show</text>
<text text-anchor="start" x="170" y="-544.3" font-family="Times,serif" font-size="14.00">update</text>
<polyline fill="none" stroke="black" points="162,-536.5 316,-536.5 "/>
<polyline fill="none" stroke="black" points="162,-512.5 316,-512.5 "/>
<text text-anchor="start" x="170" y="-497.3" font-family="Times,serif" font-size="14.00">_layout</text>
<text text-anchor="start" x="170" y="-482.3" font-family="Times,serif" font-size="14.00">get_assignment</text>
<text text-anchor="start" x="170" y="-467.3" font-family="Times,serif" font-size="14.00">get_course</text>
<text text-anchor="start" x="170" y="-452.3" font-family="Times,serif" font-size="14.00">require_instructor_owner</text>
<text text-anchor="start" x="170" y="-437.3" font-family="Times,serif" font-size="14.00">require_owner</text>
<text text-anchor="start" x="170" y="-422.3" font-family="Times,serif" font-size="14.00">submission_params</text>
</g>
<!-- TestCasesController -->
<g id="node4" class="node"><title>TestCasesController</title>
<path fill="none" stroke="black" d="M12,-504.5C12,-504.5 115,-504.5 115,-504.5 121,-504.5 127,-510.5 127,-516.5 127,-516.5 127,-600.5 127,-600.5 127,-606.5 121,-612.5 115,-612.5 115,-612.5 12,-612.5 12,-612.5 6,-612.5 0,-606.5 0,-600.5 0,-600.5 0,-516.5 0,-516.5 0,-510.5 6,-504.5 12,-504.5"/>
<text text-anchor="middle" x="63.5" y="-597.3" font-family="Times,serif" font-size="14.00">TestCasesController</text>
<polyline fill="none" stroke="black" points="0,-589.5 127,-589.5 "/>
<text text-anchor="start" x="8" y="-574.3" font-family="Times,serif" font-size="14.00">create</text>
<text text-anchor="start" x="8" y="-559.3" font-family="Times,serif" font-size="14.00">show</text>
<polyline fill="none" stroke="black" points="0,-551.5 127,-551.5 "/>
<polyline fill="none" stroke="black" points="0,-527.5 127,-527.5 "/>
<text text-anchor="start" x="8" y="-512.3" font-family="Times,serif" font-size="14.00">_layout</text>
</g>
<!-- UserSessionsController -->
<g id="node5" class="node"><title>UserSessionsController</title>
<path fill="none" stroke="black" d="M48,-234.5C48,-234.5 168,-234.5 168,-234.5 174,-234.5 180,-240.5 180,-246.5 180,-246.5 180,-360.5 180,-360.5 180,-366.5 174,-372.5 168,-372.5 168,-372.5 48,-372.5 48,-372.5 42,-372.5 36,-366.5 36,-360.5 36,-360.5 36,-246.5 36,-246.5 36,-240.5 42,-234.5 48,-234.5"/>
<text text-anchor="middle" x="108" y="-357.3" font-family="Times,serif" font-size="14.00">UserSessionsController</text>
<polyline fill="none" stroke="black" points="36,-349.5 180,-349.5 "/>
<text text-anchor="start" x="44" y="-334.3" font-family="Times,serif" font-size="14.00">create</text>
<text text-anchor="start" x="44" y="-319.3" font-family="Times,serif" font-size="14.00">destroy</text>
<text text-anchor="start" x="44" y="-304.3" font-family="Times,serif" font-size="14.00">new</text>
<text text-anchor="start" x="44" y="-289.3" font-family="Times,serif" font-size="14.00">require_no_user</text>
<polyline fill="none" stroke="black" points="36,-281.5 180,-281.5 "/>
<polyline fill="none" stroke="black" points="36,-257.5 180,-257.5 "/>
<text text-anchor="start" x="44" y="-242.3" font-family="Times,serif" font-size="14.00">_layout</text>
</g>
<!-- ApplicationController -->
<g id="node6" class="node"><title>ApplicationController</title>
<path fill="none" stroke="black" d="M516,-0.5C516,-0.5 644,-0.5 644,-0.5 650,-0.5 656,-6.5 656,-12.5 656,-12.5 656,-172.5 656,-172.5 656,-178.5 650,-184.5 644,-184.5 644,-184.5 516,-184.5 516,-184.5 510,-184.5 504,-178.5 504,-172.5 504,-172.5 504,-12.5 504,-12.5 504,-6.5 510,-0.5 516,-0.5"/>
<text text-anchor="middle" x="580" y="-169.3" font-family="Times,serif" font-size="14.00">ApplicationController</text>
<polyline fill="none" stroke="black" points="504,-161.5 656,-161.5 "/>
<polyline fill="none" stroke="black" points="504,-137.5 656,-137.5 "/>
<polyline fill="none" stroke="black" points="504,-113.5 656,-113.5 "/>
<text text-anchor="start" x="512" y="-98.3" font-family="Times,serif" font-size="14.00">_layout</text>
<text text-anchor="start" x="512" y="-83.3" font-family="Times,serif" font-size="14.00">current_user</text>
<text text-anchor="start" x="512" y="-68.3" font-family="Times,serif" font-size="14.00">current_user_session</text>
<text text-anchor="start" x="512" y="-53.3" font-family="Times,serif" font-size="14.00">redirect_back_or_default</text>
<text text-anchor="start" x="512" y="-38.3" font-family="Times,serif" font-size="14.00">require_no_user</text>
<text text-anchor="start" x="512" y="-23.3" font-family="Times,serif" font-size="14.00">require_user</text>
<text text-anchor="start" x="512" y="-8.3" font-family="Times,serif" font-size="14.00">store_location</text>
</g>
<!-- CommentsController -->
<g id="node7" class="node"><title>CommentsController</title>
<path fill="none" stroke="black" d="M372,-450.5C372,-450.5 480,-450.5 480,-450.5 486,-450.5 492,-456.5 492,-462.5 492,-462.5 492,-546.5 492,-546.5 492,-552.5 486,-558.5 480,-558.5 480,-558.5 372,-558.5 372,-558.5 366,-558.5 360,-552.5 360,-546.5 360,-546.5 360,-462.5 360,-462.5 360,-456.5 366,-450.5 372,-450.5"/>
<text text-anchor="middle" x="426" y="-543.3" font-family="Times,serif" font-size="14.00">CommentsController</text>
<polyline fill="none" stroke="black" points="360,-535.5 492,-535.5 "/>
<text text-anchor="start" x="368" y="-520.3" font-family="Times,serif" font-size="14.00">create</text>
<text text-anchor="start" x="368" y="-505.3" font-family="Times,serif" font-size="14.00">show</text>
<polyline fill="none" stroke="black" points="360,-497.5 492,-497.5 "/>
<polyline fill="none" stroke="black" points="360,-473.5 492,-473.5 "/>
<text text-anchor="start" x="368" y="-458.3" font-family="Times,serif" font-size="14.00">_layout</text>
</g>
<!-- UsersController -->
<g id="node8" class="node"><title>UsersController</title>
<path fill="none" stroke="black" d="M372,-144.5C372,-144.5 461,-144.5 461,-144.5 467,-144.5 473,-150.5 473,-156.5 473,-156.5 473,-390.5 473,-390.5 473,-396.5 467,-402.5 461,-402.5 461,-402.5 372,-402.5 372,-402.5 366,-402.5 360,-396.5 360,-390.5 360,-390.5 360,-156.5 360,-156.5 360,-150.5 366,-144.5 372,-144.5"/>
<text text-anchor="middle" x="416.5" y="-387.3" font-family="Times,serif" font-size="14.00">UsersController</text>
<polyline fill="none" stroke="black" points="360,-379.5 473,-379.5 "/>
<text text-anchor="start" x="368" y="-364.3" font-family="Times,serif" font-size="14.00">change_password</text>
<text text-anchor="start" x="368" y="-349.3" font-family="Times,serif" font-size="14.00">create</text>
<text text-anchor="start" x="368" y="-334.3" font-family="Times,serif" font-size="14.00">dashboard</text>
<text text-anchor="start" x="368" y="-319.3" font-family="Times,serif" font-size="14.00">destroy</text>
<text text-anchor="start" x="368" y="-304.3" font-family="Times,serif" font-size="14.00">edit</text>
<text text-anchor="start" x="368" y="-289.3" font-family="Times,serif" font-size="14.00">index</text>
<text text-anchor="start" x="368" y="-274.3" font-family="Times,serif" font-size="14.00">new</text>
<text text-anchor="start" x="368" y="-259.3" font-family="Times,serif" font-size="14.00">require_admin</text>
<text text-anchor="start" x="368" y="-244.3" font-family="Times,serif" font-size="14.00">settings</text>
<text text-anchor="start" x="368" y="-229.3" font-family="Times,serif" font-size="14.00">show</text>
<text text-anchor="start" x="368" y="-214.3" font-family="Times,serif" font-size="14.00">update</text>
<polyline fill="none" stroke="black" points="360,-206.5 473,-206.5 "/>
<polyline fill="none" stroke="black" points="360,-182.5 473,-182.5 "/>
<text text-anchor="start" x="368" y="-167.3" font-family="Times,serif" font-size="14.00">_layout</text>
<text text-anchor="start" x="368" y="-152.3" font-family="Times,serif" font-size="14.00">user_params</text>
</g>
<!-- UploadDataController -->
<g id="node9" class="node"><title>UploadDataController</title>
<path fill="none" stroke="black" d="M48,-54.5C48,-54.5 161,-54.5 161,-54.5 167,-54.5 173,-60.5 173,-66.5 173,-66.5 173,-180.5 173,-180.5 173,-186.5 167,-192.5 161,-192.5 161,-192.5 48,-192.5 48,-192.5 42,-192.5 36,-186.5 36,-180.5 36,-180.5 36,-66.5 36,-66.5 36,-60.5 42,-54.5 48,-54.5"/>
<text text-anchor="middle" x="104.5" y="-177.3" font-family="Times,serif" font-size="14.00">UploadDataController</text>
<polyline fill="none" stroke="black" points="36,-169.5 173,-169.5 "/>
<text text-anchor="start" x="44" y="-154.3" font-family="Times,serif" font-size="14.00">create</text>
<text text-anchor="start" x="44" y="-139.3" font-family="Times,serif" font-size="14.00">edit</text>
<text text-anchor="start" x="44" y="-124.3" font-family="Times,serif" font-size="14.00">show</text>
<text text-anchor="start" x="44" y="-109.3" font-family="Times,serif" font-size="14.00">update</text>
<polyline fill="none" stroke="black" points="36,-101.5 173,-101.5 "/>
<polyline fill="none" stroke="black" points="36,-77.5 173,-77.5 "/>
<text text-anchor="start" x="44" y="-62.3" font-family="Times,serif" font-size="14.00">_layout</text>
</g>
<!-- AssignmentsController -->
<g id="node10" class="node"><title>AssignmentsController</title>
<path fill="none" stroke="black" d="M516,-216.5C516,-216.5 635,-216.5 635,-216.5 641,-216.5 647,-222.5 647,-228.5 647,-228.5 647,-402.5 647,-402.5 647,-408.5 641,-414.5 635,-414.5 635,-414.5 516,-414.5 516,-414.5 510,-414.5 504,-408.5 504,-402.5 504,-402.5 504,-228.5 504,-228.5 504,-222.5 510,-216.5 516,-216.5"/>
<text text-anchor="middle" x="575.5" y="-399.3" font-family="Times,serif" font-size="14.00">AssignmentsController</text>
<polyline fill="none" stroke="black" points="504,-391.5 647,-391.5 "/>
<text text-anchor="start" x="512" y="-376.3" font-family="Times,serif" font-size="14.00">create</text>
<text text-anchor="start" x="512" y="-361.3" font-family="Times,serif" font-size="14.00">destroy</text>
<text text-anchor="start" x="512" y="-346.3" font-family="Times,serif" font-size="14.00">edit</text>
<text text-anchor="start" x="512" y="-331.3" font-family="Times,serif" font-size="14.00">new</text>
<text text-anchor="start" x="512" y="-316.3" font-family="Times,serif" font-size="14.00">show</text>
<text text-anchor="start" x="512" y="-301.3" font-family="Times,serif" font-size="14.00">update</text>
<polyline fill="none" stroke="black" points="504,-293.5 647,-293.5 "/>
<polyline fill="none" stroke="black" points="504,-269.5 647,-269.5 "/>
<text text-anchor="start" x="512" y="-254.3" font-family="Times,serif" font-size="14.00">_layout</text>
<text text-anchor="start" x="512" y="-239.3" font-family="Times,serif" font-size="14.00">assignment_params</text>
<text text-anchor="start" x="512" y="-224.3" font-family="Times,serif" font-size="14.00">convert_dates_to_utc</text>
</g>
</g>
</svg>
