<?xml version="1.0" encoding="UTF-8" standalone="no"?>
<!DOCTYPE svg PUBLIC "-//W3C//DTD SVG 1.1//EN"
 "http://www.w3.org/Graphics/SVG/1.1/DTD/svg11.dtd">
<!-- Generated by graphviz version 2.36.0 (20140111.2315)
 -->
<!-- Title: models_diagram Pages: 1 -->
<svg width="628pt" height="1006pt"
 viewBox="0.00 0.00 628.00 1006.00" xmlns="http://www.w3.org/2000/svg" xmlns:xlink="http://www.w3.org/1999/xlink">
<g id="graph0" class="graph" transform="scale(1 1) rotate(0) translate(4 1002)">
<title>models_diagram</title>
<polygon fill="white" stroke="none" points="-4,4 -4,-1002 624,-1002 624,4 -4,4"/>
<!-- _diagram_info -->
<g id="node1" class="node"><title>_diagram_info</title>
<text text-anchor="start" x="7" y="-938.6" font-family="Times,serif" font-size="13.00">Models diagram</text>
<text text-anchor="start" x="7" y="-924.6" font-family="Times,serif" font-size="13.00">Date: Nov 15 2014 &#45; 18:16</text>
<text text-anchor="start" x="7" y="-910.6" font-family="Times,serif" font-size="13.00">Migration version: 20141106193620</text>
<text text-anchor="start" x="7" y="-896.6" font-family="Times,serif" font-size="13.00">Generated by RailRoady 1.2.0</text>
<text text-anchor="start" x="7" y="-882.6" font-family="Times,serif" font-size="13.00">http://railroady.prestonlee.com</text>
</g>
<!-- Submission -->
<g id="node2" class="node"><title>Submission</title>
<path fill="none" stroke="black" d="M388,-333C388,-333 504,-333 504,-333 510,-333 516,-339 516,-345 516,-345 516,-457 516,-457 516,-463 510,-469 504,-469 504,-469 388,-469 388,-469 382,-469 376,-463 376,-457 376,-457 376,-345 376,-345 376,-339 382,-333 388,-333"/>
<text text-anchor="middle" x="446" y="-453.8" font-family="Times,serif" font-size="14.00">Submission</text>
<polyline fill="none" stroke="black" points="376,-446 516,-446 "/>
<text text-anchor="start" x="384" y="-430.8" font-family="Times,serif" font-size="14.00">id :integer</text>
<text text-anchor="start" x="384" y="-415.8" font-family="Times,serif" font-size="14.00">grade :float</text>
<text text-anchor="start" x="384" y="-400.8" font-family="Times,serif" font-size="14.00">note :text</text>
<text text-anchor="start" x="384" y="-385.8" font-family="Times,serif" font-size="14.00">assignment_id :integer</text>
<text text-anchor="start" x="384" y="-370.8" font-family="Times,serif" font-size="14.00">user_id :integer</text>
<text text-anchor="start" x="384" y="-355.8" font-family="Times,serif" font-size="14.00">created_at :datetime</text>
<text text-anchor="start" x="384" y="-340.8" font-family="Times,serif" font-size="14.00">updated_at :datetime</text>
</g>
<!-- UploadDatum -->
<g id="node8" class="node"><title>UploadDatum</title>
<path fill="none" stroke="black" d="M309,-159C309,-159 425,-159 425,-159 431,-159 437,-165 437,-171 437,-171 437,-283 437,-283 437,-289 431,-295 425,-295 425,-295 309,-295 309,-295 303,-295 297,-289 297,-283 297,-283 297,-171 297,-171 297,-165 303,-159 309,-159"/>
<text text-anchor="middle" x="367" y="-279.8" font-family="Times,serif" font-size="14.00">UploadDatum</text>
<polyline fill="none" stroke="black" points="297,-272 437,-272 "/>
<text text-anchor="start" x="305" y="-256.8" font-family="Times,serif" font-size="14.00">id :integer</text>
<text text-anchor="start" x="305" y="-241.8" font-family="Times,serif" font-size="14.00">name :string</text>
<text text-anchor="start" x="305" y="-226.8" font-family="Times,serif" font-size="14.00">contents :binary</text>
<text text-anchor="start" x="305" y="-211.8" font-family="Times,serif" font-size="14.00">created_at :datetime</text>
<text text-anchor="start" x="305" y="-196.8" font-family="Times,serif" font-size="14.00">updated_at :datetime</text>
<text text-anchor="start" x="305" y="-181.8" font-family="Times,serif" font-size="14.00">submission_id :integer</text>
<text text-anchor="start" x="305" y="-166.8" font-family="Times,serif" font-size="14.00">test_case_id :integer</text>
</g>
<!-- Submission&#45;&gt;UploadDatum -->
<g id="edge1" class="edge"><title>Submission&#45;&gt;UploadDatum</title>
<path fill="none" stroke="#aa3ddb" d="M411.662,-325.238C408.486,-318.325 405.266,-311.313 402.084,-304.386"/>
<ellipse fill="none" stroke="#aa3ddb" cx="413.334" cy="-328.88" rx="4.00002" ry="4.00002"/>
<polygon fill="#aa3ddb" stroke="#aa3ddb" points="401.951,-304.096 401.866,-293.13 399.864,-299.552 397.777,-295.009 397.777,-295.009 397.777,-295.009 399.864,-299.552 393.688,-296.887 401.951,-304.096 401.951,-304.096"/>
</g>
<!-- Course -->
<g id="node3" class="node"><title>Course</title>
<path fill="none" stroke="black" d="M243.5,-831C243.5,-831 350.5,-831 350.5,-831 356.5,-831 362.5,-837 362.5,-843 362.5,-843 362.5,-985 362.5,-985 362.5,-991 356.5,-997 350.5,-997 350.5,-997 243.5,-997 243.5,-997 237.5,-997 231.5,-991 231.5,-985 231.5,-985 231.5,-843 231.5,-843 231.5,-837 237.5,-831 243.5,-831"/>
<text text-anchor="middle" x="297" y="-981.8" font-family="Times,serif" font-size="14.00">Course</text>
<polyline fill="none" stroke="black" points="231.5,-974 362.5,-974 "/>
<text text-anchor="start" x="239.5" y="-958.8" font-family="Times,serif" font-size="14.00">id :integer</text>
<text text-anchor="start" x="239.5" y="-943.8" font-family="Times,serif" font-size="14.00">name :string</text>
<text text-anchor="start" x="239.5" y="-928.8" font-family="Times,serif" font-size="14.00">open :boolean</text>
<text text-anchor="start" x="239.5" y="-913.8" font-family="Times,serif" font-size="14.00">description :text</text>
<text text-anchor="start" x="239.5" y="-898.8" font-family="Times,serif" font-size="14.00">join_token :string</text>
<text text-anchor="start" x="239.5" y="-883.8" font-family="Times,serif" font-size="14.00">created_at :datetime</text>
<text text-anchor="start" x="239.5" y="-868.8" font-family="Times,serif" font-size="14.00">updated_at :datetime</text>
<text text-anchor="start" x="239.5" y="-853.8" font-family="Times,serif" font-size="14.00">year :integer</text>
<text text-anchor="start" x="239.5" y="-838.8" font-family="Times,serif" font-size="14.00">term :string</text>
</g>
<!-- Assignment -->
<g id="node6" class="node"><title>Assignment</title>
<path fill="none" stroke="black" d="M234.5,-567C234.5,-567 341.5,-567 341.5,-567 347.5,-567 353.5,-573 353.5,-579 353.5,-579 353.5,-721 353.5,-721 353.5,-727 347.5,-733 341.5,-733 341.5,-733 234.5,-733 234.5,-733 228.5,-733 222.5,-727 222.5,-721 222.5,-721 222.5,-579 222.5,-579 222.5,-573 228.5,-567 234.5,-567"/>
<text text-anchor="middle" x="288" y="-717.8" font-family="Times,serif" font-size="14.00">Assignment</text>
<polyline fill="none" stroke="black" points="222.5,-710 353.5,-710 "/>
<text text-anchor="start" x="230.5" y="-694.8" font-family="Times,serif" font-size="14.00">id :integer</text>
<text text-anchor="start" x="230.5" y="-679.8" font-family="Times,serif" font-size="14.00">lock :boolean</text>
<text text-anchor="start" x="230.5" y="-664.8" font-family="Times,serif" font-size="14.00">due_date :datetime</text>
<text text-anchor="start" x="230.5" y="-649.8" font-family="Times,serif" font-size="14.00">start_date :datetime</text>
<text text-anchor="start" x="230.5" y="-634.8" font-family="Times,serif" font-size="14.00">description :text</text>
<text text-anchor="start" x="230.5" y="-619.8" font-family="Times,serif" font-size="14.00">course_id :integer</text>
<text text-anchor="start" x="230.5" y="-604.8" font-family="Times,serif" font-size="14.00">created_at :datetime</text>
<text text-anchor="start" x="230.5" y="-589.8" font-family="Times,serif" font-size="14.00">updated_at :datetime</text>
<text text-anchor="start" x="230.5" y="-574.8" font-family="Times,serif" font-size="14.00">name :string</text>
</g>
<!-- Course&#45;&gt;Assignment -->
<g id="edge3" class="edge"><title>Course&#45;&gt;Assignment</title>
<path fill="none" stroke="#a4db7e" d="M293.899,-822.722C293.019,-797.113 292.06,-769.198 291.176,-743.462"/>
<ellipse fill="none" stroke="#a4db7e" cx="294.04" cy="-826.823" rx="4" ry="4"/>
<polygon fill="#a4db7e" stroke="#a4db7e" points="291.172,-743.332 295.326,-733.184 291,-738.335 290.828,-733.338 290.828,-733.338 290.828,-733.338 291,-738.335 286.331,-733.493 291.172,-743.332 291.172,-743.332"/>
</g>
<!-- User -->
<g id="node10" class="node"><title>User</title>
<path fill="none" stroke="black" d="M383.5,-507C383.5,-507 524.5,-507 524.5,-507 530.5,-507 536.5,-513 536.5,-519 536.5,-519 536.5,-781 536.5,-781 536.5,-787 530.5,-793 524.5,-793 524.5,-793 383.5,-793 383.5,-793 377.5,-793 371.5,-787 371.5,-781 371.5,-781 371.5,-519 371.5,-519 371.5,-513 377.5,-507 383.5,-507"/>
<text text-anchor="middle" x="454" y="-777.8" font-family="Times,serif" font-size="14.00">User</text>
<polyline fill="none" stroke="black" points="371.5,-770 536.5,-770 "/>
<text text-anchor="start" x="379.5" y="-754.8" font-family="Times,serif" font-size="14.00">id :integer</text>
<text text-anchor="start" x="379.5" y="-739.8" font-family="Times,serif" font-size="14.00">name :string</text>
<text text-anchor="start" x="379.5" y="-724.8" font-family="Times,serif" font-size="14.00">crypted_password :string</text>
<text text-anchor="start" x="379.5" y="-709.8" font-family="Times,serif" font-size="14.00">password_salt :string</text>
<text text-anchor="start" x="379.5" y="-694.8" font-family="Times,serif" font-size="14.00">email :string</text>
<text text-anchor="start" x="379.5" y="-679.8" font-family="Times,serif" font-size="14.00">persistence_token :string</text>
<text text-anchor="start" x="379.5" y="-664.8" font-family="Times,serif" font-size="14.00">single_access_token :string</text>
<text text-anchor="start" x="379.5" y="-649.8" font-family="Times,serif" font-size="14.00">perishable_token :string</text>
<text text-anchor="start" x="379.5" y="-634.8" font-family="Times,serif" font-size="14.00">login_count :integer</text>
<text text-anchor="start" x="379.5" y="-619.8" font-family="Times,serif" font-size="14.00">failed_login_count :integer</text>
<text text-anchor="start" x="379.5" y="-604.8" font-family="Times,serif" font-size="14.00">last_request_at :datetime</text>
<text text-anchor="start" x="379.5" y="-589.8" font-family="Times,serif" font-size="14.00">current_login_at :datetime</text>
<text text-anchor="start" x="379.5" y="-574.8" font-family="Times,serif" font-size="14.00">last_login_at :datetime</text>
<text text-anchor="start" x="379.5" y="-559.8" font-family="Times,serif" font-size="14.00">current_login_ip :string</text>
<text text-anchor="start" x="379.5" y="-544.8" font-family="Times,serif" font-size="14.00">last_login_ip :string</text>
<text text-anchor="start" x="379.5" y="-529.8" font-family="Times,serif" font-size="14.00">created_at :datetime</text>
<text text-anchor="start" x="379.5" y="-514.8" font-family="Times,serif" font-size="14.00">updated_at :datetime</text>
</g>
<!-- Course&#45;&gt;User -->
<g id="edge2" class="edge"><title>Course&#45;&gt;User</title>
<path fill="none" stroke="#9a98ea" d="M351.561,-821.949C356.311,-814.023 361.189,-805.881 366.118,-797.656"/>
<polygon fill="#9a98ea" stroke="#9a98ea" points="351.385,-822.243 342.385,-828.507 348.815,-826.531 346.245,-830.82 346.245,-830.82 346.245,-830.82 348.815,-826.531 350.105,-833.133 351.385,-822.243 351.385,-822.243"/>
<polygon fill="#9a98ea" stroke="#9a98ea" points="366.129,-797.637 375.13,-791.373 368.7,-793.348 371.27,-789.06 371.27,-789.06 371.27,-789.06 368.7,-793.348 367.41,-786.746 366.129,-797.637 366.129,-797.637"/>
</g>
<!-- Comment -->
<g id="node4" class="node"><title>Comment</title>
<path fill="none" stroke="black" d="M300.5,-0.5C300.5,-0.5 433.5,-0.5 433.5,-0.5 439.5,-0.5 445.5,-6.5 445.5,-12.5 445.5,-12.5 445.5,-109.5 445.5,-109.5 445.5,-115.5 439.5,-121.5 433.5,-121.5 433.5,-121.5 300.5,-121.5 300.5,-121.5 294.5,-121.5 288.5,-115.5 288.5,-109.5 288.5,-109.5 288.5,-12.5 288.5,-12.5 288.5,-6.5 294.5,-0.5 300.5,-0.5"/>
<text text-anchor="middle" x="367" y="-106.3" font-family="Times,serif" font-size="14.00">Comment</text>
<polyline fill="none" stroke="black" points="288.5,-98.5 445.5,-98.5 "/>
<text text-anchor="start" x="296.5" y="-83.3" font-family="Times,serif" font-size="14.00">id :integer</text>
<text text-anchor="start" x="296.5" y="-68.3" font-family="Times,serif" font-size="14.00">contents :text</text>
<text text-anchor="start" x="296.5" y="-53.3" font-family="Times,serif" font-size="14.00">line :integer</text>
<text text-anchor="start" x="296.5" y="-38.3" font-family="Times,serif" font-size="14.00">upload_datum_id :integer</text>
<text text-anchor="start" x="296.5" y="-23.3" font-family="Times,serif" font-size="14.00">created_at :datetime</text>
<text text-anchor="start" x="296.5" y="-8.3" font-family="Times,serif" font-size="14.00">updated_at :datetime</text>
</g>
<!-- TestCase -->
<g id="node5" class="node"><title>TestCase</title>
<path fill="none" stroke="black" d="M230,-355.5C230,-355.5 346,-355.5 346,-355.5 352,-355.5 358,-361.5 358,-367.5 358,-367.5 358,-434.5 358,-434.5 358,-440.5 352,-446.5 346,-446.5 346,-446.5 230,-446.5 230,-446.5 224,-446.5 218,-440.5 218,-434.5 218,-434.5 218,-367.5 218,-367.5 218,-361.5 224,-355.5 230,-355.5"/>
<text text-anchor="middle" x="288" y="-431.3" font-family="Times,serif" font-size="14.00">TestCase</text>
<polyline fill="none" stroke="black" points="218,-423.5 358,-423.5 "/>
<text text-anchor="start" x="226" y="-408.3" font-family="Times,serif" font-size="14.00">id :integer</text>
<text text-anchor="start" x="226" y="-393.3" font-family="Times,serif" font-size="14.00">assignment_id :integer</text>
<text text-anchor="start" x="226" y="-378.3" font-family="Times,serif" font-size="14.00">created_at :datetime</text>
<text text-anchor="start" x="226" y="-363.3" font-family="Times,serif" font-size="14.00">updated_at :datetime</text>
</g>
<!-- TestCase&#45;&gt;UploadDatum -->
<g id="edge4" class="edge"><title>TestCase&#45;&gt;UploadDatum</title>
<path fill="none" stroke="#8f4a68" d="M311.976,-347.799C318.217,-334.211 325.073,-319.285 331.763,-304.718"/>
<ellipse fill="none" stroke="#8f4a68" cx="310.22" cy="-351.623" rx="4.00002" ry="4.00002"/>
<polygon fill="#8f4a68" stroke="#8f4a68" points="331.954,-304.303 340.217,-297.094 334.041,-299.759 336.128,-295.216 336.128,-295.216 336.128,-295.216 334.041,-299.759 332.038,-293.337 331.954,-304.303 331.954,-304.303"/>
</g>
<!-- Assignment&#45;&gt;Submission -->
<g id="edge5" class="edge"><title>Assignment&#45;&gt;Submission</title>
<path fill="none" stroke="#ca3bd4" d="M331.461,-559.728C341.223,-541.582 351.975,-522.89 363,-506 369.201,-496.499 376.078,-486.816 383.143,-477.37"/>
<ellipse fill="none" stroke="#ca3bd4" cx="329.509" cy="-563.391" rx="4.00002" ry="4.00002"/>
<polygon fill="#ca3bd4" stroke="#ca3bd4" points="383.343,-477.107 392.973,-471.861 386.365,-473.124 389.388,-469.141 389.388,-469.141 389.388,-469.141 386.365,-473.124 385.803,-466.421 383.343,-477.107 383.343,-477.107"/>
</g>
<!-- Assignment&#45;&gt;TestCase -->
<g id="edge6" class="edge"><title>Assignment&#45;&gt;TestCase</title>
<path fill="none" stroke="#d716b5" d="M288,-558.676C288,-523.755 288,-485.013 288,-454.79"/>
<ellipse fill="none" stroke="#d716b5" cx="288" cy="-562.753" rx="4" ry="4"/>
<ellipse fill="#d716b5" stroke="#d716b5" cx="288" cy="-450.502" rx="4" ry="4"/>
</g>
<!-- Role -->
<g id="node7" class="node"><title>Role</title>
<path fill="none" stroke="black" d="M400.5,-853.5C400.5,-853.5 507.5,-853.5 507.5,-853.5 513.5,-853.5 519.5,-859.5 519.5,-865.5 519.5,-865.5 519.5,-962.5 519.5,-962.5 519.5,-968.5 513.5,-974.5 507.5,-974.5 507.5,-974.5 400.5,-974.5 400.5,-974.5 394.5,-974.5 388.5,-968.5 388.5,-962.5 388.5,-962.5 388.5,-865.5 388.5,-865.5 388.5,-859.5 394.5,-853.5 400.5,-853.5"/>
<text text-anchor="middle" x="454" y="-959.3" font-family="Times,serif" font-size="14.00">Role</text>
<polyline fill="none" stroke="black" points="388.5,-951.5 519.5,-951.5 "/>
<text text-anchor="start" x="396.5" y="-936.3" font-family="Times,serif" font-size="14.00">id :integer</text>
<text text-anchor="start" x="396.5" y="-921.3" font-family="Times,serif" font-size="14.00">name :string</text>
<text text-anchor="start" x="396.5" y="-906.3" font-family="Times,serif" font-size="14.00">resource_id :integer</text>
<text text-anchor="start" x="396.5" y="-891.3" font-family="Times,serif" font-size="14.00">resource_type :string</text>
<text text-anchor="start" x="396.5" y="-876.3" font-family="Times,serif" font-size="14.00">created_at :datetime</text>
<text text-anchor="start" x="396.5" y="-861.3" font-family="Times,serif" font-size="14.00">updated_at :datetime</text>
</g>
<!-- Role&#45;&gt;User -->
<g id="edge7" class="edge"><title>Role&#45;&gt;User</title>
<path fill="none" stroke="#7784b1" d="M454,-843.21C454,-830.675 454,-817.174 454,-803.348"/>
<polygon fill="#7784b1" stroke="#7784b1" points="454,-843.22 449.5,-853.22 454,-848.22 454,-853.22 454,-853.22 454,-853.22 454,-848.22 458.5,-853.22 454,-843.22 454,-843.22"/>
<polygon fill="#7784b1" stroke="#7784b1" points="454,-803.232 458.5,-793.232 454,-798.232 454,-793.232 454,-793.232 454,-793.232 454,-798.232 449.5,-793.232 454,-803.232 454,-803.232"/>
</g>
<!-- UploadDatum&#45;&gt;Comment -->
<g id="edge8" class="edge"><title>UploadDatum&#45;&gt;Comment</title>
<path fill="none" stroke="#4bd208" d="M367,-150.699C367,-144.472 367,-138.193 367,-132.007"/>
<ellipse fill="none" stroke="#4bd208" cx="367" cy="-154.822" rx="4" ry="4"/>
<polygon fill="#4bd208" stroke="#4bd208" points="367,-131.711 371.5,-121.711 367,-126.711 367,-121.711 367,-121.711 367,-121.711 367,-126.711 362.5,-121.711 367,-131.711 367,-131.711"/>
</g>
<!-- UserSession -->
<g id="node9" class="node"><title>UserSession</title>
<polygon fill="none" stroke="black" points="537.5,-891 537.5,-937 620.5,-937 620.5,-891 537.5,-891"/>
<text text-anchor="middle" x="579" y="-921.8" font-family="Times,serif" font-size="14.00">UserSession</text>
<polyline fill="none" stroke="black" points="537.5,-914 620.5,-914 "/>
<text text-anchor="middle" x="579" y="-898.8" font-family="Times,serif" font-size="14.00"> </text>
</g>
<!-- User&#45;&gt;Submission -->
<g id="edge9" class="edge"><title>User&#45;&gt;Submission</title>
<path fill="none" stroke="#26814a" d="M449.128,-498.582C448.918,-492.097 448.711,-485.715 448.511,-479.514"/>
<ellipse fill="none" stroke="#26814a" cx="449.263" cy="-502.752" rx="4" ry="4"/>
<polygon fill="#26814a" stroke="#26814a" points="448.502,-479.257 452.676,-469.116 448.34,-474.259 448.179,-469.262 448.179,-469.262 448.179,-469.262 448.34,-474.259 443.681,-469.408 448.502,-479.257 448.502,-479.257"/>
</g>
</g>
</svg>
