<?xml version="1.0" encoding="UTF-8" standalone="no"?>
<!DOCTYPE svg PUBLIC "-//W3C//DTD SVG 1.1//EN"
 "http://www.w3.org/Graphics/SVG/1.1/DTD/svg11.dtd">
<!-- Generated by graphviz version 2.36.0 (20140111.2315)
 -->
<!-- Title: models_diagram Pages: 1 -->
<svg width="493pt" height="374pt"
 viewBox="0.00 0.00 493.00 374.00" xmlns="http://www.w3.org/2000/svg" xmlns:xlink="http://www.w3.org/1999/xlink">
<g id="graph0" class="graph" transform="scale(1 1) rotate(0) translate(4 370)">
<title>models_diagram</title>
<polygon fill="white" stroke="none" points="-4,4 -4,-370 489,-370 489,4 -4,4"/>
<!-- _diagram_info -->
<g id="node1" class="node"><title>_diagram_info</title>
<text text-anchor="start" x="7" y="-351.6" font-family="Times,serif" font-size="13.00">Models diagram</text>
<text text-anchor="start" x="7" y="-337.6" font-family="Times,serif" font-size="13.00">Date: Nov 15 2014 &#45; 18:17</text>
<text text-anchor="start" x="7" y="-323.6" font-family="Times,serif" font-size="13.00">Migration version: 20141106193620</text>
<text text-anchor="start" x="7" y="-309.6" font-family="Times,serif" font-size="13.00">Generated by RailRoady 1.2.0</text>
<text text-anchor="start" x="7" y="-295.6" font-family="Times,serif" font-size="13.00">http://railroady.prestonlee.com</text>
</g>
<!-- Submission -->
<g id="node2" class="node"><title>Submission</title>
<ellipse fill="none" stroke="black" cx="357" cy="-162" rx="51.4931" ry="18"/>
<text text-anchor="middle" x="357" y="-158.3" font-family="Times,serif" font-size="14.00">Submission</text>
</g>
<!-- UploadDatum -->
<g id="node8" class="node"><title>UploadDatum</title>
<ellipse fill="none" stroke="black" cx="300" cy="-90" rx="61.1419" ry="18"/>
<text text-anchor="middle" x="300" y="-86.3" font-family="Times,serif" font-size="14.00">UploadDatum</text>
</g>
<!-- Submission&#45;&gt;UploadDatum -->
<g id="edge1" class="edge"><title>Submission&#45;&gt;UploadDatum</title>
<path fill="none" stroke="#8b854d" d="M338.429,-138.194C332.668,-131.119 326.289,-123.285 320.411,-116.066"/>
<ellipse fill="none" stroke="#8b854d" cx="340.966" cy="-141.309" rx="4.00002" ry="4.00002"/>
<polygon fill="#8b854d" stroke="#8b854d" points="320.121,-115.711 317.297,-105.115 316.964,-111.833 313.807,-107.956 313.807,-107.956 313.807,-107.956 316.964,-111.833 310.318,-110.798 320.121,-115.711 320.121,-115.711"/>
</g>
<!-- Course -->
<g id="node3" class="node"><title>Course</title>
<ellipse fill="none" stroke="black" cx="267" cy="-327" rx="35.6194" ry="18"/>
<text text-anchor="middle" x="267" y="-323.3" font-family="Times,serif" font-size="14.00">Course</text>
</g>
<!-- Assignment -->
<g id="node6" class="node"><title>Assignment</title>
<ellipse fill="none" stroke="black" cx="258" cy="-234" rx="52.9443" ry="18"/>
<text text-anchor="middle" x="258" y="-230.3" font-family="Times,serif" font-size="14.00">Assignment</text>
</g>
<!-- Course&#45;&gt;Assignment -->
<g id="edge3" class="edge"><title>Course&#45;&gt;Assignment</title>
<path fill="none" stroke="#3f7e8d" d="M264.501,-300.729C263.313,-288.725 261.893,-274.362 260.683,-262.129"/>
<ellipse fill="none" stroke="#3f7e8d" cx="264.913" cy="-304.903" rx="4" ry="4"/>
<polygon fill="#3f7e8d" stroke="#3f7e8d" points="260.67,-261.991 264.163,-251.597 260.177,-257.015 259.685,-252.04 259.685,-252.04 259.685,-252.04 260.177,-257.015 255.207,-252.483 260.67,-261.991 260.67,-261.991"/>
</g>
<!-- User -->
<g id="node10" class="node"><title>User</title>
<ellipse fill="none" stroke="black" cx="357" cy="-234" rx="26.949" ry="18"/>
<text text-anchor="middle" x="357" y="-230.3" font-family="Times,serif" font-size="14.00">User</text>
</g>
<!-- Course&#45;&gt;User -->
<g id="edge2" class="edge"><title>Course&#45;&gt;User</title>
<path fill="none" stroke="#82e5d1" d="M289.466,-303.284C303.488,-289.106 321.445,-270.95 335.317,-256.924"/>
<polygon fill="#82e5d1" stroke="#82e5d1" points="289.299,-303.453 279.068,-307.399 285.783,-307.008 282.267,-310.563 282.267,-310.563 282.267,-310.563 285.783,-307.008 285.467,-313.727 289.299,-303.453 289.299,-303.453"/>
<polygon fill="#82e5d1" stroke="#82e5d1" points="335.521,-256.718 345.752,-252.772 339.036,-253.163 342.552,-249.608 342.552,-249.608 342.552,-249.608 339.036,-253.163 339.353,-246.444 335.521,-256.718 335.521,-256.718"/>
</g>
<!-- Comment -->
<g id="node4" class="node"><title>Comment</title>
<ellipse fill="none" stroke="black" cx="300" cy="-18" rx="46.2191" ry="18"/>
<text text-anchor="middle" x="300" y="-14.3" font-family="Times,serif" font-size="14.00">Comment</text>
</g>
<!-- TestCase -->
<g id="node5" class="node"><title>TestCase</title>
<ellipse fill="none" stroke="black" cx="244" cy="-162" rx="42.3456" ry="18"/>
<text text-anchor="middle" x="244" y="-158.3" font-family="Times,serif" font-size="14.00">TestCase</text>
</g>
<!-- TestCase&#45;&gt;UploadDatum -->
<g id="edge4" class="edge"><title>TestCase&#45;&gt;UploadDatum</title>
<path fill="none" stroke="#f991e5" d="M262.042,-138.448C267.802,-131.247 274.209,-123.238 280.094,-115.882"/>
<ellipse fill="none" stroke="#f991e5" cx="259.487" cy="-141.641" rx="4.00002" ry="4.00002"/>
<polygon fill="#f991e5" stroke="#f991e5" points="280.446,-115.442 290.207,-110.445 283.57,-111.538 286.693,-107.633 286.693,-107.633 286.693,-107.633 283.57,-111.538 283.179,-104.822 280.446,-115.442 280.446,-115.442"/>
</g>
<!-- Assignment&#45;&gt;Submission -->
<g id="edge5" class="edge"><title>Assignment&#45;&gt;Submission</title>
<path fill="none" stroke="#ec9eb5" d="M286.793,-212.641C299.313,-203.789 313.988,-193.413 326.675,-184.442"/>
<ellipse fill="none" stroke="#ec9eb5" cx="283.237" cy="-215.155" rx="4.00002" ry="4.00002"/>
<polygon fill="#ec9eb5" stroke="#ec9eb5" points="326.925,-184.265 337.688,-182.166 331.008,-181.379 335.09,-178.492 335.09,-178.492 335.09,-178.492 331.008,-181.379 332.492,-174.818 326.925,-184.265 326.925,-184.265"/>
</g>
<!-- Assignment&#45;&gt;TestCase -->
<g id="edge6" class="edge"><title>Assignment&#45;&gt;TestCase</title>
<path fill="none" stroke="#8aae91" d="M252.928,-207.64C251.67,-201.348 250.321,-194.605 249.063,-188.316"/>
<ellipse fill="none" stroke="#8aae91" cx="253.755" cy="-211.774" rx="4.00001" ry="4.00001"/>
<ellipse fill="#8aae91" stroke="#8aae91" cx="248.205" cy="-184.027" rx="4.00001" ry="4.00001"/>
</g>
<!-- Role -->
<g id="node7" class="node"><title>Role</title>
<ellipse fill="none" stroke="black" cx="357" cy="-327" rx="26.949" ry="18"/>
<text text-anchor="middle" x="357" y="-323.3" font-family="Times,serif" font-size="14.00">Role</text>
</g>
<!-- Role&#45;&gt;User -->
<g id="edge7" class="edge"><title>Role&#45;&gt;User</title>
<path fill="none" stroke="#0710a2" d="M357,-298.549C357,-287.083 357,-273.792 357,-262.339"/>
<polygon fill="#0710a2" stroke="#0710a2" points="357,-298.884 352.5,-308.884 357,-303.884 357,-308.884 357,-308.884 357,-308.884 357,-303.884 361.5,-308.884 357,-298.884 357,-298.884"/>
<polygon fill="#0710a2" stroke="#0710a2" points="357,-262.04 361.5,-252.04 357,-257.04 357,-252.04 357,-252.04 357,-252.04 357,-257.04 352.5,-252.04 357,-262.04 357,-262.04"/>
</g>
<!-- UploadDatum&#45;&gt;Comment -->
<g id="edge8" class="edge"><title>UploadDatum&#45;&gt;Comment</title>
<path fill="none" stroke="#be9581" d="M300,-63.6398C300,-58.0629 300,-52.1319 300,-46.4761"/>
<ellipse fill="none" stroke="#be9581" cx="300" cy="-67.6966" rx="4" ry="4"/>
<polygon fill="#be9581" stroke="#be9581" points="300,-46.1043 304.5,-36.1043 300,-41.1043 300,-36.1043 300,-36.1043 300,-36.1043 300,-41.1043 295.5,-36.1044 300,-46.1043 300,-46.1043"/>
</g>
<!-- UserSession -->
<g id="node9" class="node"><title>UserSession</title>
<polygon fill="none" stroke="black" points="485.25,-345 402.75,-345 402.75,-309 485.25,-309 485.25,-345"/>
<text text-anchor="middle" x="444" y="-323.3" font-family="Times,serif" font-size="14.00">UserSession</text>
</g>
<!-- User&#45;&gt;Submission -->
<g id="edge9" class="edge"><title>User&#45;&gt;Submission</title>
<path fill="none" stroke="#432bea" d="M357,-207.64C357,-202.063 357,-196.132 357,-190.476"/>
<ellipse fill="none" stroke="#432bea" cx="357" cy="-211.697" rx="4" ry="4"/>
<polygon fill="#432bea" stroke="#432bea" points="357,-190.104 361.5,-180.104 357,-185.104 357,-180.104 357,-180.104 357,-180.104 357,-185.104 352.5,-180.104 357,-190.104 357,-190.104"/>
</g>
</g>
</svg>
